<svg width="35" height="35" viewBox="0 0 35 35" fill="none" xmlns="http://www.w3.org/2000/svg">
<path d="M0 31.8316C0 33.4097 1.27931 34.6891 2.85742 34.6891H32.1426C33.7207 34.6891 35 33.4097 35 31.8316C35 30.2535 33.7207 28.9742 32.1426 28.9742H2.85742C1.27931 28.9742 0 30.2535 0 31.8316ZM7.5 17.5445C7.5 19.1226 8.77931 20.4019 10.3574 20.4019H32.1426C33.7207 20.4019 35 19.1226 35 17.5445C35 15.9664 33.7207 14.6871 32.1426 14.6871H10.3574C8.77931 14.6871 7.5 15.9664 7.5 17.5445ZM2.85742 0.399994C1.27931 0.399994 0 1.67931 0 3.25742C0 4.83553 1.27931 6.11484 2.85742 6.11484H32.1426C33.7207 6.11484 35 4.83553 35 3.25742C35 1.67931 33.7207 0.399994 32.1426 0.399994H2.85742Z" fill="#EA7C69"/>
</svg>
