<svg width="25" height="25" viewBox="0 0 25 25" fill="none" xmlns="http://www.w3.org/2000/svg">
<path d="M17.3125 15.25H16.2262L15.8413 14.8787C17.1888 13.3112 18 11.2763 18 9.0625C18 4.12625 13.9987 0.125 9.0625 0.125C4.12625 0.125 0.125 4.12625 0.125 9.0625C0.125 13.9987 4.12625 18 9.0625 18C11.2763 18 13.3112 17.1888 14.8787 15.8413L15.25 16.2262V17.3125L22.125 24.1737L24.1737 22.125L17.3125 15.25ZM9.0625 15.25C5.63875 15.25 2.875 12.4862 2.875 9.0625C2.875 5.63875 5.63875 2.875 9.0625 2.875C12.4862 2.875 15.25 5.63875 15.25 9.0625C15.25 12.4862 12.4862 15.25 9.0625 15.25Z" fill="white"/>
</svg>
